<svg width="224" height="48" viewBox="0 0 224 48" fill="none" xmlns="http://www.w3.org/2000/svg">
<path d="M85.0484 20.264C87.7364 20.264 89.9124 21.048 91.5764 22.616C93.2724 24.152 94.1204 26.36 94.1204 29.24C94.1204 30.328 94.0084 31.416 93.7844 32.504L90.9044 47H80.0564L82.6964 33.896C82.8244 33.352 82.8884 32.808 82.8884 32.264C82.8884 31.304 82.6804 30.584 82.2644 30.104C81.8484 29.624 81.2724 29.384 80.5364 29.384C78.3284 29.384 76.9204 30.92 76.3124 33.992L73.7204 47H62.8724L65.5124 33.896C65.6404 33.352 65.7044 32.808 65.7044 32.264C65.7044 31.304 65.4964 30.584 65.0804 30.104C64.6644 29.624 64.0884 29.384 63.3524 29.384C61.1764 29.384 59.7524 30.984 59.0804 34.184L56.5364 47H45.6884L50.9204 20.744H61.1444L60.6164 23.288C61.7044 22.264 62.8884 21.512 64.1684 21.032C65.4484 20.52 66.7604 20.264 68.1044 20.264C69.7364 20.264 71.2404 20.616 72.6164 21.32C73.9924 22.024 75.0644 23.064 75.8324 24.44C76.9844 23.096 78.3444 22.072 79.9124 21.368C81.4804 20.632 83.1924 20.264 85.0484 20.264Z" fill="#4A4A4A"/>
<path d="M100.842 20.744H111.642L106.41 47H95.6103L100.842 20.744ZM107.418 18.632C105.562 18.632 104.074 18.152 102.954 17.192C101.834 16.2 101.274 14.968 101.274 13.496C101.274 11.8 101.914 10.392 103.194 9.272C104.474 8.152 106.138 7.592 108.186 7.592C110.042 7.592 111.53 8.05599 112.65 8.98399C113.77 9.87999 114.33 11.064 114.33 12.536C114.33 14.36 113.69 15.832 112.41 16.952C111.162 18.072 109.498 18.632 107.418 18.632Z" fill="#4A4A4A"/>
<path d="M134.02 20.264C136.804 20.264 139.06 21.048 140.788 22.616C142.548 24.152 143.428 26.376 143.428 29.288C143.428 30.344 143.316 31.416 143.092 32.504L140.212 47H129.364L132.004 33.8C132.132 33.032 132.196 32.504 132.196 32.216C132.196 30.328 131.284 29.384 129.46 29.384C126.9 29.384 125.284 31.048 124.612 34.376L122.068 47H111.22L118.324 11.384H129.172L126.916 22.76C127.972 21.928 129.108 21.304 130.324 20.888C131.54 20.472 132.772 20.264 134.02 20.264Z" fill="#4A4A4A"/>
<path d="M152.027 11.384H162.875L155.771 47H144.923L152.027 11.384Z" fill="#4A4A4A"/>
<path d="M191.395 31.832C191.395 33.272 191.203 34.792 190.819 36.392H172.435C172.659 37.48 173.187 38.264 174.019 38.744C174.851 39.224 176.003 39.464 177.475 39.464C179.651 39.464 181.555 38.856 183.187 37.64L187.699 44.216C184.499 46.392 180.675 47.48 176.227 47.48C173.379 47.48 170.851 46.984 168.643 45.992C166.467 45 164.771 43.592 163.555 41.768C162.371 39.944 161.779 37.8 161.779 35.336C161.779 32.456 162.451 29.88 163.795 27.608C165.171 25.304 167.091 23.512 169.555 22.232C172.019 20.92 174.851 20.264 178.051 20.264C180.803 20.264 183.187 20.76 185.203 21.752C187.219 22.712 188.755 24.072 189.811 25.832C190.867 27.56 191.395 29.56 191.395 31.832ZM177.571 27.656C176.387 27.656 175.395 27.976 174.595 28.616C173.827 29.224 173.251 30.072 172.867 31.16H181.459C181.459 30.072 181.107 29.224 180.403 28.616C179.699 27.976 178.755 27.656 177.571 27.656Z" fill="#4A4A4A"/>
<path d="M214.504 20.264C217.352 20.264 219.624 21.032 221.32 22.568C223.048 24.104 223.912 26.312 223.912 29.192C223.912 30.28 223.8 31.384 223.576 32.504L220.696 47H209.848L212.488 33.8C212.616 33.032 212.68 32.504 212.68 32.216C212.68 30.328 211.768 29.384 209.944 29.384C207.384 29.384 205.768 31.048 205.096 34.376L202.552 47H191.704L196.936 20.744H207.16L206.632 23.384C207.752 22.328 208.984 21.544 210.328 21.032C211.704 20.52 213.096 20.264 214.504 20.264Z" fill="#4A4A4A"/>
<path d="M45.9284 1.61026L45.8461 12.7426C45.8389 13.6264 45.2843 14.8252 44.6151 15.4049L30.681 27.4174C30.0118 27.9971 28.9383 28.4695 28.3013 28.4695C27.6644 28.4695 27.1456 27.7466 27.1527 26.8592L27.1956 20.8547C27.2028 19.9709 26.6589 19.7168 25.9897 20.2965L17.7273 27.421C17.0582 28.0007 15.9846 28.4731 15.3477 28.4731C14.7107 28.4731 14.1919 27.7502 14.199 26.8628L14.2527 19.774C14.2598 18.8902 13.7159 18.6361 13.0468 19.2158L3.52834 27.421C2.85918 28.0007 1.78569 28.4731 1.14874 28.4731C0.511787 28.4731 -0.00708357 27.7502 7.31557e-05 26.8628L0.0823686 15.7305C0.0895253 14.8466 0.644173 13.6479 1.31333 13.0682L15.2475 1.05562C15.9166 0.475927 16.9902 0.00358186 17.6271 0.00358186C18.2641 0.00358186 18.7829 0.726412 18.7757 1.61385L18.7221 8.70259C18.7149 9.58644 19.2589 9.84051 19.928 9.26081L29.4465 1.05562C30.1156 0.475927 31.1891 0.00358186 31.8261 0.00358186C32.463 0.00358186 32.9819 0.726412 32.9747 1.61385L32.9282 7.61835C32.921 8.50221 33.4649 8.75627 34.1341 8.17658L42.3965 1.05204C43.0657 0.472345 44.1392 0 44.7762 0C45.4131 0 45.9319 0.72283 45.9248 1.61026H45.9284Z" fill="#E30613"/>
</svg>
